<svg width="38" height="38" viewBox="0 0 38 38" fill="none" xmlns="http://www.w3.org/2000/svg">
<path d="M7.91673 34.6275C6.74506 34.6275 5.58923 34.1841 4.70256 33.2975C3.84756 32.4425 3.37256 31.3025 3.37256 30.0833C3.37256 28.8641 3.84756 27.7241 4.70256 26.8691L25.2859 6.28581C27.0592 4.51248 29.9409 4.51248 31.7142 6.28581C32.5692 7.14081 33.0442 8.28081 33.0442 9.49998C33.0442 10.7191 32.5692 11.8591 31.7142 12.7141L11.1309 33.2975C10.2442 34.1841 9.08839 34.6275 7.91673 34.6275ZM28.5001 7.33081C27.9459 7.33081 27.3917 7.53664 26.9642 7.96414L6.38089 28.5475C5.96923 28.9591 5.74756 29.4975 5.74756 30.0833C5.74756 30.6691 5.96923 31.2075 6.38089 31.6191C7.22006 32.4583 8.61339 32.4583 9.45256 31.6191L30.0359 11.0358C30.4476 10.6241 30.6692 10.0858 30.6692 9.49998C30.6692 8.91414 30.4476 8.37581 30.0359 7.96414C29.6084 7.53664 29.0542 7.33081 28.5001 7.33081Z" fill="#171717"/>
<path d="M28.5158 15.4216C28.215 15.4216 27.9142 15.3107 27.6767 15.0732L22.9267 10.3232C22.4675 9.86408 22.4675 9.10408 22.9267 8.64491C23.3858 8.18575 24.1458 8.18575 24.605 8.64491L29.355 13.3949C29.8142 13.8541 29.8142 14.6141 29.355 15.0732C29.1175 15.3107 28.8167 15.4216 28.5158 15.4216Z" fill="#171717"/>
<path d="M15.8334 8.70833C15.7542 8.70833 15.6909 8.6925 15.6117 8.67667L13.4584 8.04333L11.3051 8.67667C11.0201 8.75583 10.7192 8.67667 10.5292 8.47083C10.3234 8.265 10.2442 7.98 10.3234 7.695L10.9567 5.54167L10.3234 3.38833C10.2442 3.10333 10.3234 2.8025 10.5292 2.6125C10.7351 2.40667 11.0359 2.3275 11.3051 2.40667L13.4584 3.04L15.6117 2.40667C15.8967 2.3275 16.1817 2.40667 16.3876 2.6125C16.5934 2.81833 16.6726 3.11917 16.5934 3.38833L15.9601 5.54167L16.5934 7.695C16.6726 7.98 16.5934 8.28083 16.3876 8.47083C16.2451 8.62917 16.0392 8.70833 15.8334 8.70833ZM13.4584 6.42833C13.5376 6.42833 13.6009 6.44417 13.6801 6.46L14.6617 6.745L14.3767 5.76333C14.3292 5.62083 14.3292 5.4625 14.3767 5.32L14.6617 4.33833L13.6801 4.62333C13.5376 4.67083 13.3792 4.67083 13.2367 4.62333L12.2551 4.33833L12.5401 5.32C12.5876 5.4625 12.5876 5.62083 12.5401 5.76333L12.2551 6.745L13.2367 6.46C13.3159 6.44417 13.3792 6.42833 13.4584 6.42833Z" fill="#171717"/>
<path d="M9.49992 18.2083C9.42075 18.2083 9.35742 18.1925 9.27825 18.1767L7.12492 17.5433L4.97159 18.1767C4.68659 18.2558 4.40159 18.1767 4.19575 17.9708C3.98992 17.765 3.91075 17.4642 3.98992 17.195L4.62325 15.0417L3.98992 12.8883C3.91075 12.6033 3.98992 12.3025 4.19575 12.1125C4.40159 11.9225 4.70242 11.8275 4.97159 11.9067L7.12492 12.54L9.27825 11.9067C9.54742 11.8275 9.84825 11.9067 10.0541 12.1125C10.2599 12.3183 10.3391 12.6192 10.2599 12.8883L9.62659 15.0417L10.2599 17.195C10.3391 17.48 10.2599 17.7808 10.0541 17.9708C9.91158 18.1292 9.70575 18.2083 9.49992 18.2083ZM7.12492 15.9283C7.20409 15.9283 7.26742 15.9442 7.34659 15.96L8.32825 16.245L8.04325 15.2633C7.99575 15.1208 7.99575 14.9625 8.04325 14.82L8.32825 13.8383L7.34659 14.1233C7.20409 14.1708 7.04575 14.1708 6.90325 14.1233L5.92159 13.8383L6.20659 14.82C6.25409 14.9625 6.25409 15.1208 6.20659 15.2633L5.92159 16.245L6.90325 15.96C6.98242 15.9442 7.04575 15.9283 7.12492 15.9283Z" fill="#171717"/>
<path d="M33.2499 26.1251C33.1707 26.1251 33.1074 26.1092 33.0283 26.0934L30.8749 25.4601L28.7216 26.0934C28.4366 26.1726 28.1516 26.0934 27.9458 25.8876C27.7399 25.6817 27.6608 25.3809 27.7399 25.1117L28.3733 22.9584L27.7399 20.8051C27.6608 20.5201 27.7399 20.2192 27.9458 20.0292C28.1516 19.8392 28.4524 19.7442 28.7216 19.8234L30.8749 20.4567L33.0283 19.8234C33.2974 19.7442 33.5982 19.8234 33.8041 20.0292C34.0099 20.2351 34.0891 20.5359 34.0099 20.8051L33.3766 22.9584L34.0099 25.1117C34.0891 25.3967 34.0099 25.6976 33.8041 25.8876C33.6616 26.0459 33.4557 26.1251 33.2499 26.1251ZM30.8749 23.8451C30.9541 23.8451 31.0174 23.8609 31.0966 23.8767L32.0783 24.1617L31.7932 23.1801C31.7457 23.0376 31.7457 22.8792 31.7932 22.7367L32.0783 21.7551L31.0966 22.0401C30.9541 22.0876 30.7958 22.0876 30.6533 22.0401L29.6716 21.7551L29.9566 22.7367C30.0041 22.8792 30.0041 23.0376 29.9566 23.1801L29.6716 24.1617L30.6533 23.8767C30.7324 23.8609 30.7958 23.8451 30.8749 23.8451Z" fill="#171717"/>
</svg>
