<svg xmlns="http://www.w3.org/2000/svg" viewBox="0 0 28 28">
	<style>
		.blue { fill: #0a0d49; }
		.green { fill: #1bb76e; }
	</style>
	<g transform="translate(-6 -6)">
		<rect width="28" height="28" x="6" y="6" rx="5.96" class="green"/>
		<path class="blue" d="M28 26.84 20.85 34H12a6 6 0 0 1-6-6v-8.44l7.36-7.36Z"/>
		<path fill="#fff" d="M23.6 26.63a1 1 0 0 0-.54.55.09.09 0 0 1-.17 0 1.06 1.06 0 0 0-.55-.55.1.1 0 0 1 0-.17 1.09 1.09 0 0 0 .55-.55.09.09 0 0 1 .17 0 1 1 0 0 0 .54.55.09.09 0 0 1 0 .17zm-5.74 5.79a1.18 1.18 0 0 0-.64.64.11.11 0 0 1-.2 0 1.23 1.23 0 0 0-.65-.64.11.11 0 0 1 0-.2 1.29 1.29 0 0 0 .65-.65.11.11 0 0 1 .2 0 1.23 1.23 0 0 0 .64.65.11.11 0 0 1 0 .2zM9.1 29.71a.73.73 0 0 0-.4.39.06.06 0 0 1-.12 0 .73.73 0 0 0-.4-.39.07.07 0 0 1 0-.13.78.78 0 0 0 .4-.4.07.07 0 0 1 .12 0 .78.78 0 0 0 .4.4.07.07 0 0 1 0 .13zm.76-3.18a1.21 1.21 0 0 0-.61.61.1.1 0 0 1-.19 0 1.21 1.21 0 0 0-.61-.61.11.11 0 0 1 0-.19 1.14 1.14 0 0 0 .61-.61.11.11 0 0 1 .19 0 1.14 1.14 0 0 0 .61.61.11.11 0 0 1 0 .19zm3.62-9.47a1.65 1.65 0 0 0-.87.87.15.15 0 0 1-.27 0 1.65 1.65 0 0 0-.87-.87.15.15 0 0 1 0-.27 1.7 1.7 0 0 0 .87-.88.15.15 0 0 1 .27 0 1.7 1.7 0 0 0 .87.88.15.15 0 0 1 0 .27zm-2.63 3.26a2.82 2.82 0 0 0-1.48 1.48.26.26 0 0 1-.46 0 2.75 2.75 0 0 0-1.48-1.48.25.25 0 0 1 0-.46 2.85 2.85 0 0 0 1.48-1.48.25.25 0 0 1 .46 0 2.89 2.89 0 0 0 1.48 1.48.25.25 0 0 1 0 .46zm2.37 10.74a1.74 1.74 0 0 0-.9.91.15.15 0 0 1-.32.03 1.78 1.78 0 0 0-.9-.91.15.15 0 0 1 0-.28 1.72 1.72 0 0 0 .9-.9.15.15 0 0 1 .28 0 1.69 1.69 0 0 0 .9.9.15.15 0 0 1 .04.25zm9.61-.87a2.11 2.11 0 0 0-1.08 1.08.18.18 0 0 1-.34 0 2 2 0 0 0-1.08-1.08.18.18 0 0 1 0-.33 2 2 0 0 0 1.08-1.08.18.18 0 0 1 .34 0 2.11 2.11 0 0 0 1.08 1.08.18.18 0 0 1 0 .33z"/>
		<path fill="#fff" d="M15.38 30a31.35 31.35 0 0 1-5.08-5.09 1.75 1.75 0 0 1 .12-2.3L15.83 17l-2.46-2.42a1.75 1.75 0 0 1 .94-3 64.67 64.67 0 0 1 10.4-.92c1.06 0 2.1 0 3.11.1a1.74 1.74 0 0 1 1.62 1.63A59.55 59.55 0 0 1 28.63 26a1.75 1.75 0 0 1-3 .94l-2.42-2.46-5.55 5.42a1.75 1.75 0 0 1-2.31.11Z"/>
		<path class="green" d="M27.7 12.58a57.82 57.82 0 0 0-13.1.8L18.29 17l-6.62 6.79a29.92 29.92 0 0 0 4.8 4.81l6.8-6.6 3.64 3.7a57.87 57.87 0 0 0 .79-13.12Z"/>
	</g>
</svg>