<svg width="24" height="24" viewBox="0 0 24 24" fill="none" xmlns="http://www.w3.org/2000/svg">
<path d="M14.94 8.03998C15.16 8.47998 15.29 8.97998 15.29 9.50998C15.28 11.28 13.89 12.73 12.13 12.78C12.06 12.77 11.97 12.77 11.89 12.78C10.13 12.72 8.72998 11.28 8.72998 9.50998C8.72998 7.69998 10.19 6.22998 12.01 6.22998" stroke="#171717" stroke-width="1.5" stroke-linecap="round" stroke-linejoin="round"/>
<path d="M18.74 19.3801C16.96 21.0101 14.6 22.0001 12 22.0001C9.40001 22.0001 7.04001 21.0101 5.26001 19.3801C5.36001 18.4401 5.96001 17.5201 7.03001 16.8001C9.77001 14.9801 14.25 14.9801 16.97 16.8001C18.04 17.5201 18.64 18.4401 18.74 19.3801Z" stroke="#171717" stroke-width="1.5" stroke-linecap="round" stroke-linejoin="round"/>
<path d="M4 6C2.75 7.67 2 9.75 2 12C2 17.52 6.48 22 12 22C17.52 22 22 17.52 22 12C22 6.48 17.52 2 12 2C10.57 2 9.2 2.3 7.97 2.85" stroke="#171717" stroke-width="1.5" stroke-linecap="round" stroke-linejoin="round"/>
</svg>
